<?xml version="1.0" encoding="UTF-8"?>
<svg version="1.1" xmlns="http://www.w3.org/2000/svg" width="712" height="583">
<path d="M0 0 C1.20269531 -0.02578125 2.40539062 -0.0515625 3.64453125 -0.078125 C8.19386777 0.34320275 11.47296288 1.64949385 14.83203125 4.78515625 C18.61455886 9.7315385 20.0147804 12.96040244 19.1875 19.25 C17.93778074 22.58474311 16.41406148 25.46593222 13.3359375 27.43359375 C10.92832006 28.34848838 9.12998518 28.48472799 6.5625 28.4375 C5.78648437 28.43105469 5.01046875 28.42460937 4.2109375 28.41796875 C2.1875 28.25 2.1875 28.25 0.1875 27.25 C-0.286875 26.280625 -0.76125 25.31125 -1.25 24.3125 C-2.60882842 21.03256825 -2.60882842 21.03256825 -5.8125 19.25 C-11.48711417 19.25 -14.36625022 21.05357082 -18.4296875 24.6796875 C-20.05053646 26.31470939 -20.05053646 26.31470939 -20.8125 29.25 C-19.69875 29.311875 -18.585 29.37375 -17.4375 29.4375 C-9.20676101 30.48637293 -1.32760528 35.11054318 4.1875 41.25 C14.33738551 54.49646076 16.74519508 67.94635661 15.1875 84.25 C13.35416901 94.71144495 7.5691183 104.06209441 -0.75 110.6875 C-13.85200491 119.56717911 -28.83997447 120.88199374 -44.22265625 118.78515625 C-51.64496395 117.13249485 -58.17164926 113.88833844 -64.8125 110.25 C-64.8125 112.23 -64.8125 114.21 -64.8125 116.25 C-55.62472924 121.02302174 -45.80437956 121.64818054 -35.6875 122.75 C3.68994015 127.09265729 3.68994015 127.09265729 14.1875 138.0625 C18.05679139 142.97457914 19.33985004 146.87521581 19.05859375 153.10546875 C17.96924726 162.15277799 14.61287125 168.74543887 7.5 174.5 C-9.33893671 185.94794002 -30.67562326 187.58413862 -50.3125 184 C-61.8312708 181.64000895 -72.31444688 177.70017086 -79.55078125 167.89453125 C-82.90370382 161.95371915 -84.15176585 156.00077094 -82.8125 149.25 C-80.42602732 145.70644966 -78.56261063 144.58004868 -74.6875 142.875 C-68.50909671 141.87848334 -62.51115503 142.03835897 -56.75 144.625 C-54.8125 146.25 -54.8125 146.25 -52.8125 149.25 C-52.72265625 151.44921875 -52.72265625 151.44921875 -52.875 153.9375 C-52.98330018 160.69149311 -51.7771343 165.19606415 -47.0625 170.125 C-40.11596128 174.66696762 -33.76262967 174.81714786 -25.8125 173.25 C-19.86570425 171.30798379 -16.42282346 168.2825721 -12.8125 163.25 C-11.28758002 160.20016004 -11.57687452 157.6076631 -11.8125 154.25 C-18.16785815 146.1779925 -33.25449815 146.61369243 -42.62109375 145.23242188 C-55.81429454 143.1755606 -67.53157923 140.37009361 -75.8125 129.25 C-77.61099632 123.85451105 -78.14490327 116.5589067 -75.98828125 111.203125 C-74.9375 109.6875 -74.9375 109.6875 -72.8125 107.25 C-72.11820621 105.9308418 -71.44586645 104.59946996 -70.8125 103.25 C-71.21082031 102.70472656 -71.60914063 102.15945313 -72.01953125 101.59765625 C-78.91065567 91.78912149 -81.87162408 81.78918792 -80.375 69.72265625 C-77.5718448 55.05387252 -70.98574709 44.35851015 -58.9375 35.375 C-51.80201812 30.6950929 -44.91286718 28.38357524 -36.4375 27.75 C-33.40991048 27.44561702 -33.40991048 27.44561702 -30.8125 26.25 C-28.98527642 23.40115141 -28.04952185 20.64760775 -27.00390625 17.43359375 C-24.54811795 10.87140535 -19.69464084 5.93841808 -13.5 2.75 C-8.66853489 0.78465826 -5.20532252 0.06652169 0 0 Z M-44.2890625 46.59375 C-48.4810989 54.53655581 -50.16725828 62.35488197 -50.8125 71.25 C-50.86664063 71.92417969 -50.92078125 72.59835937 -50.9765625 73.29296875 C-51.4302888 84.28551958 -49.26018861 96.81486503 -41.8125 105.25 C-38.2257186 108.05642377 -35.24491245 109.25 -30.6875 109.25 C-24.16801542 106.98235319 -21.78482087 104.71768921 -18.5625 98.625 C-11.87430511 84.09305822 -12.08579996 67.41325372 -16.8125 52.25 C-19.25642191 46.27019108 -22.24910951 41.63166873 -27.8125 38.25 C-35.74303359 36.86530366 -40.08241783 39.91653624 -44.2890625 46.59375 Z " fill="#FFFFFF" transform="translate(220.8125,397.75)"/>
<path d="M0 0 C11.92820983 0.14552086 11.92820983 0.14552086 17.0715332 3.57983398 C21.73030566 8.82992006 24.30539257 15.08385477 26.85375977 21.55932617 C28.78407473 26.14894248 31.44179158 30.12692739 34.20532227 34.24926758 C35.19422848 35.79716329 36.17860015 37.34796521 37.15844727 38.90161133 C37.64764648 39.67359863 38.1368457 40.44558594 38.64086914 41.2409668 C41.27149473 45.41524621 43.86300196 49.61363032 46.45532227 53.81176758 C51.78410855 62.44085472 57.15063126 71.0456978 62.53198242 79.64208984 C67.36081601 87.36057468 72.15891844 95.09767014 76.93188477 102.85083008 C77.42817383 103.65520508 77.92446289 104.45958008 78.43579102 105.28833008 C78.86400146 105.98394043 79.29221191 106.67955078 79.73339844 107.39624023 C81.48885146 110.17127302 83.31829949 112.89427628 85.14282227 115.62426758 C85.18912948 103.04613683 85.22468329 90.46802631 85.24644661 77.88982773 C85.25689104 72.04948672 85.27106234 66.20920396 85.29370117 60.36889648 C85.31540592 54.73440222 85.32738593 49.09996405 85.33257675 43.46543121 C85.33627676 41.31400927 85.34350178 39.16259044 85.35428238 37.01119232 C85.36876572 34.00161566 85.37080152 30.99227183 85.36987305 27.98266602 C85.38065887 26.64370522 85.38065887 26.64370522 85.3916626 25.2776947 C85.38891327 24.4560231 85.38616394 23.6343515 85.3833313 22.78778076 C85.38609668 21.72034449 85.38609668 21.72034449 85.38891792 20.63134384 C85.0973 18.25300277 84.39179103 16.66090126 83.14282227 14.62426758 C81.24143613 13.5803025 81.24143613 13.5803025 79.08032227 12.99926758 C76.92016602 12.33520508 76.92016602 12.33520508 75.14282227 11.62426758 C73.77329554 8.88521412 74.01660865 6.65339426 74.14282227 3.62426758 C74.47282227 2.96426758 74.80282227 2.30426758 75.14282227 1.62426758 C80.10904576 1.5996166 85.07523393 1.58143109 90.04150391 1.56933594 C91.73226542 1.56429568 93.42302256 1.55746353 95.11376953 1.54882812 C97.53882933 1.53674901 99.96383171 1.53103635 102.38891602 1.52661133 C103.5295475 1.5188694 103.5295475 1.5188694 104.69322205 1.51097107 C106.51014797 1.5107752 108.32695354 1.56229481 110.14282227 1.62426758 C111.14282227 2.62426758 111.14282227 2.62426758 111.24047852 4.47192383 C111.20792643 6.52270508 111.17537435 8.57348633 111.14282227 10.62426758 C110.09481445 11.09606445 110.09481445 11.09606445 109.02563477 11.57739258 C108.11555664 12.00536133 107.20547852 12.43333008 106.26782227 12.87426758 C105.36290039 13.29192383 104.45797852 13.70958008 103.52563477 14.13989258 C100.79937323 15.83821944 100.2787273 16.67681225 99.14282227 19.62426758 C98.83629909 22.25120216 98.83629909 22.25120216 98.87107849 25.14775085 C98.86136017 26.27088684 98.85164185 27.39402283 98.84162903 28.55119324 C98.84103989 29.77888931 98.84045074 31.00658539 98.83984375 32.27148438 C98.82718475 34.21578842 98.82718475 34.21578842 98.81427002 36.19937134 C98.79600848 39.0154798 98.78395923 41.83152207 98.77673149 44.64768028 C98.76524537 49.09680271 98.73979124 53.54577827 98.7124176 57.99482727 C98.67078751 65.02708994 98.6383603 72.05935964 98.60994345 79.09168702 C98.5589243 91.69833883 98.49692862 104.30493 98.42460304 116.91147739 C98.39963091 121.33850695 98.38022251 125.76551688 98.3652209 130.19259107 C98.35749237 132.27949947 98.34756701 134.36638352 98.33666992 136.45327759 C98.32346006 139.00347735 98.31388884 141.55369936 98.30848694 144.10392761 C98.30158844 145.21860413 98.29468994 146.33328064 98.2875824 147.48173523 C98.28180003 148.94374123 98.28180003 148.94374123 98.27590084 150.43528271 C98.14282227 152.62426758 98.14282227 152.62426758 97.14282227 153.62426758 C88.70342872 155.60088893 79.42497149 156.53638216 71.14282227 153.62426758 C64.35528786 147.91208951 60.79146497 139.17821891 56.99487305 131.31518555 C54.08974559 125.38869449 50.48002147 119.88285041 46.95532227 114.31176758 C45.61525395 112.14033366 44.27796729 109.96718038 42.94360352 107.79223633 C39.00090289 101.39017834 35.04354307 94.99727023 31.08227539 88.60668945 C26.05087976 80.48573153 21.04676471 72.3480314 16.04907227 64.20629883 C10.79171343 55.65084531 5.47313868 47.13440517 0.14282227 38.62426758 C-0.54528151 63.85351927 -0.96348988 89.07254576 -0.98217773 114.31176758 C-0.98467529 115.50900452 -0.98717285 116.70624146 -0.98974609 117.9397583 C-0.99559244 121.33853107 -0.99417684 124.73721275 -0.98999023 128.13598633 C-0.99296616 129.66570824 -0.99296616 129.66570824 -0.9960022 131.22633362 C-0.99133438 132.62733559 -0.99133438 132.62733559 -0.98657227 134.05664062 C-0.98577667 134.87053757 -0.98498108 135.68443451 -0.98416138 136.522995 C-0.93633422 138.81750761 -0.93633422 138.81750761 0.14282227 141.62426758 C2.24002098 142.64708276 2.24002098 142.64708276 4.70532227 143.31176758 C5.53161133 143.56313477 6.35790039 143.81450195 7.20922852 144.07348633 C7.84731445 144.25524414 8.48540039 144.43700195 9.14282227 144.62426758 C9.14282227 147.59426758 9.14282227 150.56426758 9.14282227 153.62426758 C-2.73717773 153.62426758 -14.61717773 153.62426758 -26.85717773 153.62426758 C-26.85717773 150.65426758 -26.85717773 147.68426758 -26.85717773 144.62426758 C-26.23069336 144.37032227 -25.60420898 144.11637695 -24.95874023 143.85473633 C-24.14147461 143.51055664 -23.32420898 143.16637695 -22.48217773 142.81176758 C-21.67006836 142.47532227 -20.85795898 142.13887695 -20.02124023 141.79223633 C-17.55570315 140.67987676 -17.55570315 140.67987676 -15.85717773 137.62426758 C-15.55766625 135.18956372 -15.37213805 132.85446899 -15.2722168 130.41040039 C-15.21711126 129.29404646 -15.21711126 129.29404646 -15.16089249 128.15513992 C-14.67937797 117.79161901 -14.45042519 107.4175759 -14.21655273 97.04614258 C-14.19166023 95.95368477 -14.16676773 94.86122696 -14.14112091 93.73566437 C-14.01082725 87.97872577 -13.88501326 82.22170769 -13.76245117 76.46459961 C-13.66048369 71.71598041 -13.54935846 66.9677064 -13.43041992 62.21948242 C-13.28588226 56.44892953 -13.15641387 50.67822734 -13.0379715 44.9070816 C-12.99055768 42.71729864 -12.93788287 40.52762294 -12.87981415 38.33809662 C-12.80013274 35.29003991 -12.73986582 32.24218234 -12.68432617 29.19360352 C-12.64245178 27.84399284 -12.64245178 27.84399284 -12.59973145 26.46711731 C-12.5348752 21.67375933 -12.69931929 18.50522327 -15.85717773 14.62426758 C-17.85095744 13.20970864 -17.85095744 13.20970864 -20.04467773 12.31176758 C-20.76010742 11.98563477 -21.47553711 11.65950195 -22.21264648 11.32348633 C-22.7553418 11.09274414 -23.29803711 10.86200195 -23.85717773 10.62426758 C-23.95483398 4.47192383 -23.95483398 4.47192383 -23.85717773 2.62426758 C-19.83871797 -1.39419219 -5.4910212 0.08232796 0 0 Z " fill="#FFFFFF" transform="translate(26.857177734375,192.375732421875)"/>
<path d="M0 0 C0.33 19.47 0.66 38.94 1 59 C3.64 56.69 6.28 54.38 9 52 C20.12213376 46.43893312 30.65484647 45.22584198 42.875 48.5625 C50.25800907 51.12542032 55.58709222 54.96034653 59.375 61.875 C62.95071017 70.44434077 63.29209348 78.65492355 63.30496025 87.83647919 C63.30866761 89.96426739 63.32550636 92.0916074 63.34571838 94.21929932 C63.40074791 100.261512 63.43188831 106.30378521 63.45629883 112.34619141 C63.47219268 116.0590377 63.50241323 119.77155464 63.54106331 123.48423004 C63.55267899 124.89235182 63.55864336 126.30053241 63.55874443 127.70870209 C63.55893699 129.67531414 63.57874231 131.64189451 63.59936523 133.60839844 C63.60443588 134.72486755 63.60950653 135.84133667 63.61473083 136.99163818 C64.04804869 140.37518666 64.99832342 142.26379548 67 145 C68.76580116 146.19873855 68.76580116 146.19873855 70.6875 146.8125 C71.780625 147.204375 72.87375 147.59625 74 148 C74 150.97 74 153.94 74 157 C57.17 157 40.34 157 23 157 C22 151 22 151 22.5 148.8125 C24.75196328 146.09137771 27.79258905 145.37460469 31 144 C33.21247373 140.81445027 33.25761996 137.9893734 33.2746582 134.1809082 C33.28419022 133.00901443 33.29372223 131.83712067 33.30354309 130.62971497 C33.30263168 129.36616684 33.30172028 128.10261871 33.30078125 126.80078125 C33.30506638 125.49602341 33.3093515 124.19126556 33.31376648 122.8469696 C33.32122308 120.08389221 33.32094315 117.32094257 33.31567383 114.55786133 C33.30990323 111.03870805 33.32675361 107.52008523 33.3500185 104.00101948 C33.3684175 100.62175271 33.36456766 97.24259765 33.36328125 93.86328125 C33.372491 92.60985428 33.38170074 91.35642731 33.39118958 90.0650177 C33.34382331 81.03360754 32.68606107 72.68606107 26 66 C21.72548549 63.45863948 17.85814406 63.35170037 13 64 C8.65586257 65.41693545 5.97015998 67.59140004 3.625 71.5 C1.42064117 76.24784979 0.87256352 79.7447497 0.83886719 84.97436523 C0.82925964 86.17919052 0.8196521 87.38401581 0.80975342 88.62535095 C0.8033786 90.57230614 0.8033786 90.57230614 0.796875 92.55859375 C0.79111882 93.90853374 0.78536115 95.25847372 0.77960205 96.6084137 C0.76911327 99.43531676 0.76325635 102.26219156 0.75976562 105.08911133 C0.75427711 108.70502368 0.73023302 112.32056021 0.70179367 115.93635464 C0.68314076 118.72366927 0.67796035 121.51089369 0.67642975 124.29826546 C0.67194555 126.27745551 0.65331588 128.2565972 0.63446045 130.23570251 C0.63746155 131.44367996 0.64046265 132.65165741 0.64355469 133.89624023 C0.63990906 134.9567308 0.63626343 136.01722137 0.63250732 137.10984802 C1.06029246 140.47417099 1.93677109 142.32180356 4 145 C5.794375 145.7425 5.794375 145.7425 7.625 146.5 C11 148 11 148 12 150.4375 C12 153 12 153 11 157 C-5.83 157 -22.66 157 -40 157 C-41.27848101 150.60759494 -41.27848101 150.60759494 -39 147 C-36.68191636 145.96514123 -34.34824702 144.9644586 -32 144 C-30.08805768 141.13277116 -29.74810426 138.81683285 -29.73930359 135.41456604 C-29.73221878 134.49915039 -29.72513397 133.58373474 -29.71783447 132.64057922 C-29.72031189 131.64358505 -29.72278931 130.64659088 -29.7253418 129.61938477 C-29.72023087 128.56369293 -29.71511993 127.5080011 -29.70985413 126.4203186 C-29.69594317 122.9272903 -29.69691602 119.43445897 -29.69921875 115.94140625 C-29.69533274 113.51529364 -29.69099826 111.08918172 -29.68623352 108.66307068 C-29.67876813 103.57638341 -29.67906499 98.48976555 -29.68432617 93.40307617 C-29.69012206 86.88157848 -29.67318818 80.36036467 -29.6499815 73.83891392 C-29.63525681 68.82808264 -29.63437074 63.81731994 -29.63749123 58.80647087 C-29.63697741 56.4018898 -29.63172839 53.99730495 -29.62167931 51.59274483 C-29.60935665 48.23164491 -29.61608189 44.87110065 -29.62768555 41.51000977 C-29.62004181 40.51503983 -29.61239807 39.52006989 -29.60452271 38.49494934 C-29.6167074 31.72317045 -29.6167074 31.72317045 -33 26 C-36.57996259 24.63099646 -36.57996259 24.63099646 -40 24 C-41.125 17.375 -41.125 17.375 -40 14 C-37.30997686 12.97422065 -34.69398329 12.11642728 -31.9375 11.3125 C-24.63016064 9.06172232 -17.98341353 6.26404584 -11.30444336 2.5402832 C-6.93803177 0.1788624 -5.30620585 0 0 0 Z " fill="#FFFFFF" transform="translate(181,0)"/>
<path d="M0 0 C0.66 0 1.32 0 2 0 C2.098004 0.68238235 2.196008 1.36476471 2.29698181 2.06782532 C3.3156766 9.15694541 4.33822624 16.24550176 5.36303711 23.33374023 C5.74552777 25.98068942 6.12664097 28.62783156 6.5065918 31.27514648 C7.05258413 35.07573722 7.60211068 38.87580246 8.15234375 42.67578125 C8.3221727 43.86335526 8.49200165 45.05092926 8.66697693 46.27449036 C8.82706741 47.37540512 8.9871579 48.47631989 9.15209961 49.6105957 C9.29199814 50.58100296 9.43189667 51.55141022 9.57603455 52.55122375 C9.95892992 55.1263747 9.95892992 55.1263747 11 58 C13.33751307 58.91009396 13.33751307 58.91009396 16.25415039 59.44213867 C17.37523697 59.6821611 18.49632355 59.92218353 19.65138245 60.16947937 C20.8711528 60.41648087 22.09092316 60.66348236 23.34765625 60.91796875 C24.58921982 61.18007645 25.83078339 61.44218414 27.10997009 61.7122345 C30.41419303 62.40730085 33.72039965 63.09073576 37.02813721 63.76873779 C40.40163518 64.46315349 43.77195904 65.17262671 47.14257812 65.88085938 C53.75887089 67.26785597 60.37818798 68.63961233 67 70 C67 70.66 67 71.32 67 72 C60.51770538 75.26429124 54.03327152 78.52428982 47.54605293 81.77878571 C44.53402644 83.29002328 41.52276406 84.80274398 38.51318359 86.31884766 C35.05492549 88.06005858 31.59414462 89.79615962 28.1328125 91.53125 C27.04944611 92.07809448 25.96607971 92.62493896 24.84988403 93.18835449 C23.8489975 93.68887329 22.84811096 94.18939209 21.81689453 94.70507812 C20.93309113 95.14920044 20.04928772 95.59332275 19.13870239 96.05090332 C17 97 17 97 15 97 C15.11069824 97.93457031 15.22139648 98.86914062 15.33544922 99.83203125 C17.54379198 118.53413208 19.63050634 137.21399857 21 156 C17.50010107 154.53308415 15.59067777 152.66095669 13.13671875 149.79296875 C7.52134462 143.40512145 1.65254784 137.28961375 -4.31225586 131.2277832 C-5.5749114 129.93816822 -6.83034247 128.64144449 -8.07885742 127.33813477 C-9.9045482 125.43373612 -11.75187146 123.55297859 -13.60546875 121.67578125 C-14.43536568 120.79639641 -14.43536568 120.79639641 -15.2820282 119.89924622 C-17.77246746 117.42146352 -19.25219343 116.02645906 -22.8359375 115.8996582 C-27.01603673 117.35333932 -31.00761837 119.06497502 -35.01953125 120.9296875 C-36.30654182 121.51618576 -36.30654182 121.51618576 -37.61955261 122.11453247 C-40.35367376 123.36129084 -43.08338071 124.61733468 -45.8125 125.875 C-48.5312941 127.12462607 -51.2510278 128.3720392 -53.97331238 129.61404419 C-55.66287006 130.38517387 -57.35044155 131.16067646 -59.03559875 131.94137573 C-64.25863981 134.32898043 -69.51575266 136.29624249 -75 138 C-73.67455335 133.67606803 -71.99505589 129.85925878 -69.83984375 125.88671875 C-69.21456787 124.72857666 -68.58929199 123.57043457 -67.94506836 122.37719727 C-67.61666962 121.77400665 -67.28827087 121.17081604 -66.94992065 120.54934692 C-65.92875865 118.67142461 -64.91562832 116.7893693 -63.90454102 114.90600586 C-60.96102288 109.42962834 -57.99644969 103.96778833 -54.9375 98.5546875 C-54.29180054 97.3932019 -54.29180054 97.3932019 -53.63305664 96.20825195 C-52.85842927 94.8179722 -52.06935514 93.43560495 -51.26342773 92.06323242 C-49.65750153 89.15776622 -48.87742179 87.57203164 -49.5859375 84.265625 C-50.96556668 82.05516941 -52.27710253 80.44926242 -54.1875 78.6875 C-56.66774393 76.31420704 -59.00994944 73.91419728 -61.25 71.3125 C-64.26717849 67.81284476 -67.36921347 64.39782265 -70.5 61 C-76.91005927 54.02354637 -76.91005927 54.02354637 -79.9375 50.625 C-80.44152344 50.06039062 -80.94554687 49.49578125 -81.46484375 48.9140625 C-83.48857084 46.39084042 -85.21715101 43.69701916 -87 41 C-74.25620358 42.44919605 -61.64252924 44.47962737 -49 46.625 C-47.04953079 46.95343175 -45.09901023 47.28155863 -43.1484375 47.609375 C-38.43169391 48.40274691 -33.7156585 49.20020488 -29 50 C-19.27322365 33.36764332 -9.61323477 16.69816848 0 0 Z " fill="#FEC63F" transform="translate(645,195)"/>
<path d="M0 0 C12.54 0 25.08 0 38 0 C42.50037815 11.25094538 42.50037815 11.25094538 44.38745117 16.84350586 C44.69898825 17.76303165 44.69898825 17.76303165 45.016819 18.70113373 C45.69489434 20.70480574 46.36899609 22.7097884 47.04296875 24.71484375 C47.5290862 26.15453759 48.01542499 27.59415671 48.50196838 29.03370667 C49.53301174 32.08618749 50.56220778 35.13928258 51.58996582 38.19287109 C52.92790522 42.16792739 54.26913488 46.14186369 55.61144447 50.11544609 C60.86097977 65.6569438 66.084007 81.20661689 71.22265625 96.78515625 C71.6153923 97.97350571 72.00812836 99.16185516 72.4127655 100.38621521 C74.22527349 105.87146141 76.03046979 111.3588728 77.82104492 116.85131836 C78.45852499 118.78639332 79.09628387 120.72137646 79.734375 122.65625 C80.00939346 123.51029922 80.28441193 124.36434845 80.56776428 125.24427795 C83.18624628 133.90631765 83.18624628 133.90631765 89.10546875 140.12890625 C89.79253906 140.27199219 90.47960937 140.41507813 91.1875 140.5625 C93.28515625 141.1953125 93.28515625 141.1953125 95 142 C96.125 144.9375 96.125 144.9375 96 148 C95.37714266 149.3543526 94.71699294 150.69304042 94 152 C86.32788798 152.02526605 78.6557866 152.04283123 70.98364258 152.05493164 C68.37133381 152.05997377 65.75902789 152.06680725 63.14672852 152.07543945 C59.40119732 152.08751036 55.65570328 152.09322935 51.91015625 152.09765625 C50.73413345 152.10281754 49.55811066 152.10797882 48.34645081 152.11329651 C47.26540573 152.11337204 46.18436066 152.11344757 45.07055664 152.11352539 C44.11347305 152.115746 43.15638947 152.11796661 42.17030334 152.12025452 C40 152 40 152 39 151 C38.92820036 149.48071962 38.91607993 147.95832518 38.9375 146.4375 C38.94652344 145.61121094 38.95554687 144.78492188 38.96484375 143.93359375 C38.97644531 143.29550781 38.98804687 142.65742187 39 142 C39.62648438 141.76925781 40.25296875 141.53851562 40.8984375 141.30078125 C41.71570313 140.97464844 42.53296875 140.64851562 43.375 140.3125 C44.18710938 139.99925781 44.99921875 139.68601562 45.8359375 139.36328125 C48.69190689 137.56412364 49.10529828 136.22764215 50 133 C49.55458011 130.1883834 49.55458011 130.1883834 48.4453125 127.33203125 C47.89423828 125.74551758 47.89423828 125.74551758 47.33203125 124.12695312 C46.93371094 123.03318359 46.53539063 121.93941406 46.125 120.8125 C45.35461059 118.63227254 44.58627329 116.45131852 43.8203125 114.26953125 C43.47242676 113.30635986 43.12454102 112.34318848 42.76611328 111.35083008 C42 109 42 109 42 107 C25.17 107 8.34 107 -9 107 C-9.66 109.97 -10.32 112.94 -11 116 C-11.47125681 117.47668198 -11.97423259 118.94477151 -12.54296875 120.38671875 C-12.81173828 121.09763672 -13.08050781 121.80855469 -13.35742188 122.54101562 C-13.91627931 123.98615521 -14.481515 125.42884257 -15.05273438 126.86914062 C-16.72184718 131.32416921 -17.29472098 134.24770044 -16 139 C-12.7 139.99 -9.4 140.98 -6 142 C-5.90234375 148.93359375 -5.90234375 148.93359375 -6 151 C-7.7329298 152.7329298 -9.96214336 152.12820046 -12.27148438 152.13894653 C-13.00689453 152.1369223 -13.74230469 152.13489807 -14.5 152.1328125 C-15.25087891 152.13376923 -16.00175781 152.13472595 -16.77539062 152.13571167 C-18.36588627 152.13639338 -19.95638467 152.13453972 -21.546875 152.13037109 C-23.98964655 152.12502267 -26.43223421 152.13031634 -28.875 152.13671875 C-30.41666707 152.13605797 -31.95833403 152.1347768 -33.5 152.1328125 C-34.23541016 152.13483673 -34.97082031 152.13686096 -35.72851562 152.13894653 C-40.88504839 152.11495161 -40.88504839 152.11495161 -42 151 C-42.07179964 149.48071962 -42.08392007 147.95832518 -42.0625 146.4375 C-42.05347656 145.61121094 -42.04445312 144.78492188 -42.03515625 143.93359375 C-42.02355469 143.29550781 -42.01195312 142.65742187 -42 142 C-41.39671875 141.8040625 -40.7934375 141.608125 -40.171875 141.40625 C-39.37265625 141.1071875 -38.5734375 140.808125 -37.75 140.5 C-36.56664062 140.08234375 -36.56664062 140.08234375 -35.359375 139.65625 C-28.36675708 134.74752484 -26.44912171 122.91615917 -23.8515625 115.09375 C-23.35733908 113.62060457 -22.86252394 112.14765754 -22.36715698 110.67489624 C-21.32074724 107.56067474 -20.27770245 104.44535714 -19.23754883 101.32904053 C-16.81480521 94.07053614 -14.37799761 86.81675554 -11.93949127 79.56353378 C-11.40159592 77.96356053 -10.86391187 76.36351622 -10.3264389 74.76340103 C-7.05068376 65.01429173 -3.73478255 55.28211388 -0.3046875 45.5859375 C0.03178802 44.63434753 0.36826355 43.68275757 0.7149353 42.70233154 C2.21039369 38.48369236 3.7180699 34.26979531 5.23974609 30.06054688 C5.75366178 28.62112268 6.26750218 27.18167161 6.78125 25.7421875 C7.21501953 24.5444873 7.64878906 23.34678711 8.09570312 22.11279297 C8.9454935 19.18762361 9.28874319 17.01763619 9 14 C6.81350656 10.72025983 3.66258654 10.05808055 0 9 C0 6.03 0 3.06 0 0 Z M16 34 C15.69385773 34.90296562 15.69385773 34.90296562 15.38153076 35.82417297 C13.24131254 42.13595825 11.09940161 48.44716732 8.95654297 54.75805664 C8.15891526 57.10784657 7.36170744 59.45777908 6.56494141 61.80786133 C5.41421291 65.20171828 4.26193428 68.59504567 3.109375 71.98828125 C2.58256134 73.54365349 2.58256134 73.54365349 2.04510498 75.13044739 C0.0283672 81.06237163 -2.06563099 86.95549815 -4.26947021 92.82072449 C-5.10594485 94.93297217 -5.10594485 94.93297217 -5 97 C9.19 97 23.38 97 38 97 C36.31741328 89.3894436 36.31741328 89.3894436 34.12060547 82.02124023 C33.760383 80.94079941 33.40016052 79.86035858 33.02902222 78.74717712 C32.64561676 77.61244461 32.2622113 76.4777121 31.8671875 75.30859375 C31.27213913 73.5298159 31.27213913 73.5298159 30.66506958 71.71510315 C29.61947651 68.59218913 28.5699986 65.4706182 27.51855469 62.34967041 C26.44264078 59.15284692 25.37194383 55.95427734 24.30078125 52.75585938 C22.20527878 46.50230174 20.10463754 40.25048875 18 34 C17.34 34 16.68 34 16 34 Z " fill="#FFFFFF" transform="translate(42,384)"/>
<path d="M0 0 C7.58088703 5.39321622 11.75281414 12.21623498 13.50378418 21.24690247 C13.94371146 24.34789847 14.10043971 27.3059597 14.13867188 30.4362793 C14.1553894 31.6073674 14.17210693 32.77845551 14.18933105 33.98503113 C14.20290649 35.23520523 14.21648193 36.48537933 14.23046875 37.7734375 C14.25859187 39.75015572 14.28672021 41.72687388 14.31516266 43.70358753 C14.37353808 47.86242573 14.42381544 52.02136948 14.47528076 56.18029785 C14.51806981 59.61559049 14.56267437 63.05083528 14.61218262 66.48603821 C14.64887067 69.05904874 14.6813004 71.63212413 14.70910645 74.20524597 C14.72582397 75.36687759 14.7425415 76.52850922 14.75976562 77.7253418 C14.7722937 78.7487114 14.78482178 79.77208099 14.79772949 80.82646179 C14.845176 83.50732466 14.845176 83.50732466 15.94921875 86.38671875 C19.62342741 86.0805347 20.73057388 85.62900091 23.26171875 82.82421875 C23.81859375 82.01984375 24.37546875 81.21546875 24.94921875 80.38671875 C26.92921875 80.71671875 28.90921875 81.04671875 30.94921875 81.38671875 C32.40558887 87.03140846 31.19963703 91.11101289 28.94921875 96.38671875 C25.44090872 102.30489031 20.55020639 105.60094431 13.94921875 107.38671875 C6.14286899 108.45177112 -0.26964187 106.87883334 -6.80078125 102.57421875 C-11.73242756 97.77956262 -14.69396472 92.38486833 -15.30906677 85.49261475 C-15.31547935 83.98565033 -15.31547935 83.98565033 -15.32202148 82.44824219 C-15.33730141 80.72550079 -15.33730141 80.72550079 -15.35289001 78.96795654 C-15.35610008 77.12563446 -15.35610008 77.12563446 -15.359375 75.24609375 C-15.37809876 73.29386703 -15.39683967 71.3416403 -15.41655827 69.38942337 C-15.46171064 64.59939409 -15.48545204 59.8092273 -15.50708008 55.01904297 C-15.51996471 52.32622862 -15.54074926 49.63367182 -15.5693512 46.940979 C-15.59539679 44.41450677 -15.60948613 41.88787356 -15.60972595 39.36126709 C-15.70518759 31.05160012 -16.08219587 23.04036229 -21.48828125 16.38671875 C-26.18004849 12.72485163 -28.96875649 11.86240627 -35.05078125 12.38671875 C-40.19370789 14.23817234 -42.91806036 16.9486975 -46.05078125 21.38671875 C-47.72367664 25.57339923 -48.30581774 29.09407583 -48.32543945 33.58813477 C-48.33497147 34.79280899 -48.34450348 35.99748322 -48.35432434 37.23866272 C-48.35341293 38.52631027 -48.35250153 39.81395782 -48.3515625 41.140625 C-48.35545417 42.48770783 -48.35978981 43.83478945 -48.36454773 45.18186951 C-48.37198587 47.9968566 -48.37173536 50.81171819 -48.36645508 53.62670898 C-48.36065061 57.22690444 -48.37762601 60.82658707 -48.40079975 64.42669773 C-48.41555444 67.20544923 -48.41640669 69.98407752 -48.41329002 72.76286125 C-48.41404998 74.73317099 -48.42790089 76.70346167 -48.44197083 78.67372131 C-48.43262764 80.47600441 -48.43262764 80.47600441 -48.4230957 82.31469727 C-48.42372513 83.36915543 -48.42435455 84.42361359 -48.42500305 85.51002502 C-47.98895577 88.86197963 -47.11025392 90.71888921 -45.05078125 93.38671875 C-43.85453125 93.84046875 -42.65828125 94.29421875 -41.42578125 94.76171875 C-40.31203125 95.29796875 -39.19828125 95.83421875 -38.05078125 96.38671875 C-36.98828125 99.88671875 -36.98828125 99.88671875 -37.05078125 103.38671875 C-37.71078125 104.37671875 -38.37078125 105.36671875 -39.05078125 106.38671875 C-41.14479065 106.75421143 -41.14479065 106.75421143 -43.76000977 106.74316406 C-44.73764786 106.74616516 -45.71528595 106.74916626 -46.72254944 106.7522583 C-47.780905 106.7399115 -48.83926056 106.7275647 -49.9296875 106.71484375 C-51.01209213 106.71297058 -52.09449677 106.71109741 -53.20970154 106.70916748 C-55.50042801 106.70243688 -57.79114279 106.68850257 -60.08178711 106.66796875 C-63.60215848 106.63681717 -67.12208262 106.62700021 -70.64257812 106.62109375 C-72.86328675 106.61192418 -75.08399079 106.60154855 -77.3046875 106.58984375 C-78.36506729 106.58559387 -79.42544708 106.58134399 -80.51795959 106.57696533 C-81.97968849 106.56255402 -81.97968849 106.56255402 -83.47094727 106.54785156 C-84.33317398 106.54102356 -85.1954007 106.53419556 -86.08375549 106.52716064 C-88.05078125 106.38671875 -88.05078125 106.38671875 -89.05078125 105.38671875 C-89.12258089 103.86743837 -89.13470132 102.34504393 -89.11328125 100.82421875 C-89.10425781 99.99792969 -89.09523438 99.17164063 -89.0859375 98.3203125 C-89.07433594 97.68222656 -89.06273437 97.04414062 -89.05078125 96.38671875 C-88.49648438 96.2165625 -87.9421875 96.04640625 -87.37109375 95.87109375 C-86.64664062 95.62875 -85.9221875 95.38640625 -85.17578125 95.13671875 C-84.45648438 94.9046875 -83.7371875 94.67265625 -82.99609375 94.43359375 C-80.47396101 93.07630143 -80.0878717 92.03942483 -79.05078125 89.38671875 C-78.74233941 86.67527099 -78.74233941 86.67527099 -78.77612305 83.68774414 C-78.76659103 82.54298111 -78.75705902 81.39821808 -78.74723816 80.21876526 C-78.74814957 78.98641647 -78.74906097 77.75406769 -78.75 76.484375 C-78.74571487 75.21452255 -78.74142975 73.9446701 -78.73701477 72.63633728 C-78.731271 69.95053269 -78.72983644 67.26511235 -78.73510742 64.5793457 C-78.74090063 61.14499083 -78.72397067 57.71117552 -78.70076275 54.27690983 C-78.68245092 50.99190237 -78.68621136 47.7069243 -78.6875 44.421875 C-78.67829025 43.19155045 -78.66908051 41.96122589 -78.65959167 40.69361877 C-78.66893486 38.97174599 -78.66893486 38.97174599 -78.6784668 37.21508789 C-78.67783737 36.207892 -78.67720795 35.20069611 -78.67655945 34.16297913 C-79.12032484 30.87079181 -80.03767049 29.01710629 -82.05078125 26.38671875 C-83.24703125 25.91234375 -84.44328125 25.43796875 -85.67578125 24.94921875 C-86.78953125 24.43359375 -87.90328125 23.91796875 -89.05078125 23.38671875 C-90.26424976 19.74631321 -90.26424976 18.02712429 -89.05078125 14.38671875 C-86.90869141 13.31518555 -86.90869141 13.31518555 -84.08984375 12.3359375 C-83.05988281 11.96662109 -82.02992188 11.59730469 -80.96875 11.21679688 C-79.88207031 10.83974609 -78.79539062 10.46269531 -77.67578125 10.07421875 C-70.18051384 7.46055539 -63.30662344 4.65897763 -56.50146484 0.53442383 C-53.79728961 -0.73199655 -51.99997992 -0.84153618 -49.05078125 -0.61328125 C-48.55578125 3.84171875 -48.55578125 3.84171875 -48.05078125 8.38671875 C-47.37015625 7.66484375 -46.68953125 6.94296875 -45.98828125 6.19921875 C-33.77721109 -5.77441393 -15.25518769 -8.32382452 0 0 Z " fill="#FFFFFF" transform="translate(440.05078125,429.61328125)"/>
<path d="M0 0 C2.13197327 -0.36749268 2.13197327 -0.36749268 4.80102539 -0.35644531 C5.79868423 -0.35944641 6.79634308 -0.36244751 7.82423401 -0.36553955 C8.90446335 -0.35319275 9.98469269 -0.34084595 11.09765625 -0.328125 C12.20225693 -0.32625183 13.3068576 -0.32437866 14.44493103 -0.32244873 C16.78273532 -0.31571788 19.12052815 -0.30178308 21.45825195 -0.28125 C25.05104954 -0.25009928 28.64340891 -0.24028157 32.23632812 -0.234375 C34.50260956 -0.2252054 36.7688865 -0.21482977 39.03515625 -0.203125 C40.65853661 -0.19675018 40.65853661 -0.19675018 42.31471252 -0.19024658 C43.80647255 -0.17583527 43.80647255 -0.17583527 45.32836914 -0.16113281 C46.64835655 -0.15089081 46.64835655 -0.15089081 47.99501038 -0.14044189 C50 0 50 0 51 1 C51.51134021 6.2838488 51.51134021 6.2838488 51 9 C48.5625 10.75 48.5625 10.75 46 12 C44.77285767 15.08114916 45.06377582 17.1466695 45.9765625 20.27734375 C46.22913818 21.16236572 46.48171387 22.0473877 46.74194336 22.95922852 C47.03335205 23.94205811 47.32476074 24.9248877 47.625 25.9375 C47.9247876 26.97769287 48.2245752 28.01788574 48.53344727 29.08959961 C49.24507955 31.55423949 49.96067468 34.01744758 50.68115234 36.47949219 C52.25684083 41.87002953 53.8092208 47.26725823 55.36328125 52.6640625 C58.56552247 63.77894382 61.78002331 74.89024509 65 86 C69.60906678 73.90479189 74.0027421 61.73752462 78.28857422 49.52416992 C79.01909019 47.44868376 79.75419594 45.37480793 80.49365234 43.30249023 C81.57660728 40.26645914 82.6452588 37.22572536 83.7109375 34.18359375 C84.04209564 33.26372177 84.37325378 32.34384979 84.71444702 31.39610291 C86.75870422 25.49505027 88.29862045 20.24655112 85.875 14.1875 C83.51690838 11.43639311 81.47172055 10.8486428 78 10 C76.875 3.375 76.875 3.375 78 0 C82.96622349 -0.02465098 87.93241166 -0.04283649 92.89868164 -0.05493164 C94.58944316 -0.0599719 96.28020029 -0.06680405 97.97094727 -0.07543945 C100.39600707 -0.08751857 102.82100944 -0.09323123 105.24609375 -0.09765625 C106.38672523 -0.10539818 106.38672523 -0.10539818 107.55039978 -0.11329651 C109.3673257 -0.11349238 111.18413127 -0.06197277 113 0 C114 1 114 1 114.09765625 3.06640625 C114.08605469 3.89011719 114.07445312 4.71382813 114.0625 5.5625 C114.05347656 6.38878906 114.04445313 7.21507812 114.03515625 8.06640625 C114.02355469 8.70449219 114.01195312 9.34257812 114 10 C112.783125 10.45375 111.56625 10.9075 110.3125 11.375 C101.33000861 15.92151898 98.89898341 29.27549969 95.7265625 38.125 C95.23540005 39.48027496 94.74363698 40.83533237 94.25131226 42.19018555 C92.96327686 45.73888288 91.68207984 49.29000671 90.402771 52.84185791 C88.36945016 58.48387247 86.32625306 64.12231823 84.28228569 69.76048279 C83.54354048 71.80013642 82.80689742 73.84054134 82.07032776 75.88098145 C79.46265835 83.08803532 76.74521823 90.23585422 73.87890625 97.34375 C71.47525382 103.3580752 69.89851074 109.04229788 69.3125 115.5 C67.68991351 128.57739409 63.74367699 138.65961098 53.3125 147.3125 C41.42627743 155.39423088 26.29980969 155.93407537 12.484375 153.33984375 C5.12480567 150.96545756 -0.08255959 146.46446049 -5 140.625 C-6.49107211 136.71093571 -6.81400991 133.12232542 -6 129 C-3.47031526 125.71824682 -1.92268669 124.30756223 2 123 C4.28851645 122.85380485 6.58200316 122.77908664 8.875 122.75 C10.08929687 122.72421875 11.30359375 122.6984375 12.5546875 122.671875 C16.98671583 123.09397294 19.52054182 124.57533657 22.6875 127.625 C24.34482387 130.623967 24.92664869 133.53072521 25.5703125 136.87890625 C25.99058031 139.17436697 25.99058031 139.17436697 27 142 C30.481398 142.91179471 32.59118036 143.12514887 36.0625 142.0625 C40.87646425 138.68248255 43.92546145 133.8112799 45 128 C45.6315514 121.42565342 45.21210527 116.24724534 42.17604065 110.35223389 C37.79397115 101.58752632 34.90731951 92.1155343 31.75390625 82.859375 C31.25618673 81.4049637 30.75821103 79.95064005 30.25999451 78.49639893 C28.95607998 74.68859625 27.65506631 70.87980944 26.3548584 67.07073975 C24.27914379 60.99117599 22.1991758 54.91306688 20.11881828 48.83509064 C19.40175742 46.73868296 18.6860659 44.64181203 17.97059631 42.54486084 C17.08474849 39.94886321 16.19141313 37.35562636 15.29275513 34.76403809 C14.41563567 32.21018163 13.5606944 29.65685742 12.72946167 27.08850098 C12.31592438 25.84918823 11.90238708 24.60987549 11.47631836 23.33300781 C11.1187999 22.23305481 10.76128143 21.13310181 10.39292908 19.99981689 C8.329197 15.55535633 5.62458272 12.7581386 1.1875 10.6875 C0.465625 10.460625 -0.25625 10.23375 -1 10 C-2.25 3.375 -2.25 3.375 0 0 Z " fill="#FFFFFF" transform="translate(573,429)"/>
<path d="M0 0 C7.24486551 -0.02526739 14.48971974 -0.0428318 21.73461914 -0.05493164 C24.20142033 -0.05997356 26.66821852 -0.06680691 29.13500977 -0.07543945 C32.67204529 -0.08751125 36.20904145 -0.09322956 39.74609375 -0.09765625 C40.85649521 -0.10281754 41.96689667 -0.10797882 43.11094666 -0.11329651 C44.64242088 -0.11340981 44.64242088 -0.11340981 46.20483398 -0.11352539 C47.10862289 -0.115746 48.0124118 -0.11796661 48.94358826 -0.12025452 C51 0 51 0 52 1 C52.51134021 6.2838488 52.51134021 6.2838488 52 9 C49.5625 10.75 49.5625 10.75 47 12 C45.61593006 15.32278618 46.2107076 17.66679163 47.18408203 21.04956055 C47.46833038 22.05548752 47.75257874 23.06141449 48.04544067 24.0978241 C48.36302338 25.18315933 48.68060608 26.26849457 49.0078125 27.38671875 C49.33030975 28.51713089 49.65280701 29.64754303 49.9850769 30.81221008 C51.02250394 34.44002291 52.07360822 38.06371263 53.125 41.6875 C53.81078544 44.07852107 54.49569094 46.4697947 55.1796875 48.86132812 C58.73155402 61.25691216 62.33870903 73.63630403 66 86 C70.73169826 73.24221969 75.40435679 60.46461006 79.93676758 47.63452148 C80.61152841 45.73172556 81.29133018 43.83071068 81.97583008 41.93139648 C82.98419182 39.13155571 83.97613326 36.32636234 84.96484375 33.51953125 C85.42406471 32.26001396 85.42406471 32.26001396 85.89256287 30.97505188 C87.70390049 25.76403653 88.50848989 21.52423715 88 16 C85.75771217 13.07256866 84.17813739 11.41394017 80.6875 10.1875 C80.130625 10.125625 79.57375 10.06375 79 10 C77.875 2.25 77.875 2.25 79 0 C83.96622349 -0.02465098 88.93241166 -0.04283649 93.89868164 -0.05493164 C95.58944316 -0.0599719 97.28020029 -0.06680405 98.97094727 -0.07543945 C101.39600707 -0.08751857 103.82100944 -0.09323123 106.24609375 -0.09765625 C107.38672523 -0.10539818 107.38672523 -0.10539818 108.55039978 -0.11329651 C110.3673257 -0.11349238 112.18413127 -0.06197277 114 0 C115 1 115 1 115.625 4.6875 C115.609375 6.91015625 115.609375 6.91015625 115 9 C113.203125 10.37109375 113.203125 10.37109375 110.875 11.625 C106.60069454 14.11549243 105.05031762 16.23348469 103.20703125 20.80078125 C102.83936897 21.70364113 102.83936897 21.70364113 102.46427917 22.6247406 C98.64374067 32.16528229 95.26280802 41.88402198 91.8125 51.5625 C83.2245147 75.59826907 83.2245147 75.59826907 79.55078125 84.8203125 C79.29579865 85.46173187 79.04081604 86.10315125 78.77810669 86.76400757 C78.53261078 87.38151886 78.28711487 87.99903015 78.03417969 88.63525391 C73.74934841 99.43641383 70.81783867 109.39576628 69.515625 120.94140625 C68.40524251 130.64392843 63.86741223 138.14442814 57 145 C53.83741401 147.45462148 50.62345518 149.30830983 47 151 C46.27683594 151.33902344 45.55367187 151.67804688 44.80859375 152.02734375 C34.02525176 156.09688325 19.21840104 155.58448355 8.59375 151.40625 C2.96479202 148.35440531 -2.62744393 144.12615225 -5 138 C-5.79946114 133.29580236 -5.71371275 130.01649998 -2.9375 126.0625 C3.06287716 121.84946923 8.40874742 121.69589305 15.47265625 122.51953125 C18.53293099 123.10131455 20.60863069 123.99433542 23 126 C25.38519981 129.57779971 25.698627 132.44152762 26.33984375 136.625 C27.08502841 139.30590101 27.77549912 140.35672263 30 142 C33.86723101 142.50130772 36.19873223 142.40995095 39.6875 140.625 C45.02542856 134.56572975 46.64253322 127.55941145 46.328125 119.609375 C45.73803402 114.91674677 44.28198652 110.91828764 41.63256836 106.95385742 C39.20019562 102.5528887 37.77098833 97.87603991 36.19140625 93.11328125 C35.82834381 92.03475388 35.46528137 90.9562265 35.09121704 89.84501648 C34.31349066 87.53346901 33.53823895 85.22108772 32.76522827 82.90795898 C31.15447953 78.09275577 29.52719548 73.28320221 27.90052795 68.47335815 C26.68730958 64.88582006 25.47570625 61.29774062 24.26464844 57.70947266 C23.88111206 56.57334534 23.49757568 55.43721802 23.10241699 54.2666626 C22.40091513 52.18798465 21.69978342 50.10918172 20.99914551 48.0302124 C19.32443347 43.06364794 17.63797308 38.10156334 15.92575073 33.14779663 C15.43783043 31.72828759 14.95524486 30.30693243 14.478302 28.88369751 C13.82584354 26.93835463 13.15563871 25.00005589 12.48046875 23.0625 C12.11848389 22.00160156 11.75649902 20.94070313 11.38354492 19.84765625 C9.27977672 15.51761349 6.54589679 12.7214185 2.1875 10.6875 C1.465625 10.460625 0.74375 10.23375 0 10 C-1.125 3.375 -1.125 3.375 0 0 Z " fill="#FFFFFF" transform="translate(136,240)"/>
<path d="M0 0 C6.48224255 6.29158835 8.18248879 12.7659638 8.41210938 21.48510742 C8.44008705 24.04597797 8.45841371 26.60696624 8.46875 29.16796875 C8.482406 30.53844845 8.49719535 31.90891728 8.51306152 33.27937317 C8.56916895 38.33782762 8.60469999 43.39638668 8.64068604 48.45501709 C8.67196327 52.74356634 8.71115618 57.0319007 8.76094055 61.32027626 C8.78095043 63.3254486 8.78918535 65.33072728 8.79724121 67.33598328 C8.81065552 68.55437393 8.82406982 69.77276459 8.83789062 71.02807617 C8.84882751 72.63521736 8.84882751 72.63521736 8.85998535 74.27482605 C9.12318373 77.04339478 9.69784528 78.70412461 11.125 81.0625 C14.38043229 80.71370368 15.14373107 80.04116739 17.375 77.5 C17.9525 76.695625 18.53 75.89125 19.125 75.0625 C21.5 75.3125 21.5 75.3125 24.125 76.0625 C26.20912518 79.12377239 26.33400733 81.21952118 25.6875 84.8125 C24.33552318 90.57753323 21.73943321 94.37435264 17.125 98.0625 C10.51495631 101.86730564 4.29643792 103.2726513 -3.1953125 101.51953125 C-10.275453 99.40483582 -14.43732187 95.97940417 -18.875 90.0625 C-19.27589844 90.44921875 -19.67679687 90.8359375 -20.08984375 91.234375 C-30.11207737 100.41574095 -42.16607743 102.57733276 -55.4765625 102.30859375 C-66.89806991 101.48151908 -77.93015479 98.83637254 -85.875 90.0625 C-89.38609522 84.79585717 -90.40932278 80.36750877 -89.875 74.0625 C-87.86046388 64.5315434 -83.13297508 59.39113056 -75.25 53.9375 C-67.02225855 48.64058578 -57.99185242 44.76264242 -49.08935547 40.75537109 C-33.43394567 34.92710215 -33.43394567 34.92710215 -21.875 24.0625 C-21.23093533 16.41653225 -21.93380482 9.10173856 -26.875 3.0625 C-30.73744903 0.66151817 -34.40589927 0.6772327 -38.875 1.0625 C-44.05344803 2.73013581 -46.92425533 4.47245274 -49.875 9.0625 C-51.55968726 12.71783619 -52.19008543 15.95078312 -52.625 19.9375 C-53.54675728 25.7395691 -55.11223855 29.49316613 -59.875 33.0625 C-64.95752868 35.32140164 -69.56923837 35.55844496 -74.875 34.0625 C-78.89608932 31.90302611 -81.20015926 30.29886186 -82.875 26.0625 C-84.07842493 18.13256306 -82.62057726 11.52593328 -77.875 5.0625 C-58.85648882 -15.08722374 -21.96974881 -14.80570029 0 0 Z M-28.8125 43.125 C-33.28165405 46.43870388 -37.76350587 49.6977814 -42.375 52.8125 C-48.97360361 57.44579571 -54.35534473 61.76712873 -56.5703125 69.79296875 C-57.24760135 74.83790234 -55.75428865 78.59701891 -53.1875 82.875 C-48.86335492 86.96540751 -44.74954625 88.23216377 -38.9375 88.5 C-33.90176754 88.3160463 -29.86146515 87.22036962 -25.875 84.0625 C-21.14643614 78.15522167 -20.72689033 72.29765284 -20.77734375 65.015625 C-20.7787587 64.24442322 -20.78017365 63.47322144 -20.78163147 62.6786499 C-20.78721466 60.22322662 -20.79976405 57.76789558 -20.8125 55.3125 C-20.81751717 53.64453257 -20.8220797 51.97656371 -20.82617188 50.30859375 C-20.83717859 46.22652713 -20.85443164 42.14452919 -20.875 38.0625 C-23.44995114 38.0625 -26.70834405 41.55805375 -28.8125 43.125 Z " fill="#FFFFFF" transform="translate(516.875,245.9375)"/>
<path d="M0 0 C0.79584283 -0.00410574 1.59168566 -0.00821148 2.41164494 -0.01244164 C3.32713108 -0.02661125 4.24261723 -0.04078087 5.18584538 -0.05537987 C6.68908611 -0.04794762 6.68908611 -0.04794762 8.22269535 -0.04036522 C9.27984745 -0.05058708 10.33699955 -0.06080894 11.42618656 -0.07134056 C14.9296298 -0.09919918 18.43228912 -0.09721442 21.93583012 -0.09261131 C24.36576984 -0.10038149 26.79570684 -0.10905005 29.2256403 -0.11858177 C34.32256717 -0.13352042 39.41921702 -0.13291351 44.51615238 -0.12239647 C51.05492207 -0.11080399 57.5925593 -0.14466766 64.13114166 -0.19108582 C69.15056354 -0.22051882 74.16971134 -0.22230974 79.18920422 -0.21606636 C81.60021108 -0.21709487 84.01123288 -0.22760952 86.42215633 -0.2476902 C89.79131831 -0.27230709 93.15825771 -0.25890842 96.52738285 -0.23567772 C97.52751911 -0.25096519 98.52765537 -0.26625267 99.55809879 -0.2820034 C102.15698535 -0.24230116 104.42666497 -0.15441157 106.93973637 0.50895119 C109.50475407 3.37168312 109.50475407 3.37168312 110.93973637 6.50895119 C111.39251957 7.47945412 111.84530277 8.44995705 112.31180668 9.44986916 C113.61861016 12.75602906 114.91428477 16.0655524 116.18973637 19.38395119 C116.64864262 20.52992775 117.10754887 21.67590431 117.58036137 22.85660744 C121.89244811 34.00899846 121.89244811 34.00899846 120.93973637 40.50895119 C117.401362 42.86786743 116.10574166 43.17406837 111.93973637 42.50895119 C109.79934574 40.50985039 108.18855828 38.74334139 106.43973637 36.44645119 C105.95762699 35.84808449 105.47551762 35.24971779 104.97879887 34.63321877 C103.04924721 32.23529452 101.16690313 29.80255351 99.28348637 27.36832619 C92.92507166 19.45727533 83.83432433 12.59369746 73.5925684 11.18644142 C72.80221195 11.10595558 72.01185551 11.02546974 71.19754887 10.94254494 C70.39720219 10.85931984 69.59685551 10.77609474 68.7722559 10.69034767 C68.16752445 10.63048683 67.56279301 10.57062599 66.93973637 10.50895119 C67.00027251 26.72069669 67.07777343 42.93225861 67.17545128 59.14381886 C67.22041 66.67119573 67.25982444 74.19852528 67.28617191 81.7259922 C67.30915144 88.28721407 67.34254883 94.8482862 67.38843793 101.40938932 C67.41237096 104.88321897 67.43109912 108.35690033 67.43735027 111.83081055 C67.44452525 115.70961074 67.47495964 119.58803931 67.50736332 123.46671486 C67.50592823 124.6175808 67.50449314 125.76844673 67.50301456 126.95418739 C67.51555271 128.01282997 67.52809086 129.07147255 67.54100895 130.16219521 C67.54561791 131.07937922 67.55022688 131.99656324 67.55497551 132.94154072 C68.02168419 136.05576801 69.1266485 137.95621736 70.93973637 140.50895119 C72.70553752 141.70768974 72.70553752 141.70768974 74.62723637 142.32145119 C75.72036137 142.71332619 76.81348637 143.10520119 77.93973637 143.50895119 C77.93973637 146.47895119 77.93973637 149.44895119 77.93973637 152.50895119 C61.10973637 152.50895119 44.27973637 152.50895119 26.93973637 152.50895119 C25.93973637 146.50895119 25.93973637 146.50895119 26.43973637 144.32145119 C28.69169964 141.60032889 31.73232542 140.88355588 34.93973637 139.50895119 C37.0070822 136.46803258 37.19639285 133.90397518 37.21820927 130.28244972 C37.22937275 129.22518181 37.24053623 128.16791389 37.252038 127.07860756 C37.25419819 125.92414635 37.25635838 124.76968513 37.25858402 123.58024025 C37.27365246 121.75056961 37.27365246 121.75056961 37.28902531 119.88393593 C37.3146144 116.54333314 37.33147121 113.20290012 37.34445333 109.86223888 C37.36008882 106.36948821 37.3868777 102.87682353 37.41248417 99.38413429 C37.4592646 92.77213877 37.49601224 86.16012705 37.52915704 79.54805064 C37.56738365 72.01963204 37.61679239 64.49129982 37.6671412 56.96295404 C37.7704501 41.47834888 37.85971385 25.99369526 37.93973637 10.50895119 C35.88093638 10.77622471 33.823971 11.05765069 31.76786137 11.34488869 C30.62220707 11.50005959 29.47655277 11.65523048 28.29618168 11.81510353 C15.89610646 14.3784592 6.51677065 25.37982028 -0.91963863 34.89566994 C-3.17293958 37.64650631 -5.38169394 40.1652027 -8.06026363 42.50895119 C-14.26716019 42.30205464 -14.26716019 42.30205464 -16.06026363 40.50895119 C-16.99165912 33.02090034 -14.33317326 27.0276134 -11.52535152 20.1622715 C-10.74614793 18.25499639 -9.9886534 16.34015375 -9.23409176 14.42301369 C-3.83369005 0.94704438 -3.83369005 0.94704438 0 0 Z " fill="#FFFFFF" transform="translate(16.060263633728027,4.491048812866211)"/>
<path d="M0 0 C1.43665555 1.03531228 2.85462061 2.09719405 4.25 3.1875 C4.86617188 3.66574219 5.48234375 4.14398438 6.1171875 4.63671875 C13.41096937 11.0714552 18.83435643 22.02779853 19.48828125 31.71875 C19.51277344 33.0284375 19.53726563 34.338125 19.5625 35.6875 C19.61857422 37.65203125 19.61857422 37.65203125 19.67578125 39.65625 C19.25 43.1875 19.25 43.1875 17.48046875 45.59375 C13.58586999 48.37658064 9.98875073 48.31090074 5.28808594 48.30102539 C4.08714294 48.30094986 2.88619995 48.30087433 1.64886475 48.30079651 C-0.28880768 48.29305458 -0.28880768 48.29305458 -2.265625 48.28515625 C-3.60512235 48.28329017 -4.94462038 48.28186716 -6.28411865 48.28086853 C-9.80222472 48.27705835 -13.32028921 48.26724091 -16.83837891 48.25616455 C-20.43130939 48.24591817 -24.02424661 48.241364 -27.6171875 48.23632812 C-34.66147529 48.22561725 -41.70573493 48.20855887 -48.75 48.1875 C-48.14810948 50.57372781 -47.53753137 52.95716461 -46.921875 55.33984375 C-46.67026611 56.34307678 -46.67026611 56.34307678 -46.41357422 57.36657715 C-44.18481545 65.92323201 -40.46824155 72.96548483 -32.99609375 77.9375 C-23.50843556 83.21758803 -13.54565564 85.14952908 -2.84765625 82.45703125 C5.07722629 79.53733768 10.07827606 74.72820969 15.25 68.1875 C20.125 69.0625 20.125 69.0625 21.25 70.1875 C20.91517463 79.56261024 16.63301749 86.79550717 9.8828125 93.19921875 C6.53606786 95.72665647 3.04556699 97.66541023 -0.6875 99.5625 C-1.34339111 99.89644775 -1.99928223 100.23039551 -2.67504883 100.57446289 C-15.11279572 106.54378283 -30.58933014 107.32710352 -43.8125 103.5625 C-58.51818437 98.26770524 -68.53026883 88.9601021 -75.5 75.0625 C-82.32519428 59.20462287 -82.31847391 41.78526432 -76.625 25.625 C-70.90167382 11.67543532 -61.31089394 2.23429333 -47.5859375 -3.8046875 C-31.78178552 -9.42103903 -14.33909769 -8.91413906 0 0 Z M-38.60546875 10.2578125 C-44.82754543 18.50969245 -47.30227411 27.05341879 -48.75 37.1875 C-36.21 37.1875 -23.67 37.1875 -10.75 37.1875 C-10.68359206 20.30073028 -10.68359206 20.30073028 -18.75 6.1875 C-25.42518326 1.0698595 -33.61182677 4.68595934 -38.60546875 10.2578125 Z " fill="#FFFFFF" transform="translate(340.75,53.8125)"/>
<path d="M0 0 C9.56627654 7.82034014 16.08314755 17.25898583 18.0546875 29.6796875 C18.91706817 39.19282427 18.91706817 39.19282427 16.2421875 43.8046875 C12.65650005 46.87813388 9.6661482 46.80259773 5.11450195 46.79321289 C3.89346268 46.79313736 2.6724234 46.79306183 1.41438293 46.79298401 C0.09556625 46.78782272 -1.22325043 46.78266144 -2.58203125 46.77734375 C-3.94537809 46.7754783 -5.30872561 46.774055 -6.67207336 46.77305603 C-10.25759741 46.76924082 -13.84308085 46.75941905 -17.42858887 46.74835205 C-21.0884547 46.73811651 -24.7483271 46.73355382 -28.40820312 46.72851562 C-35.58725808 46.71779588 -42.7662796 46.70073143 -49.9453125 46.6796875 C-49.50263313 48.90912344 -49.05021348 51.13662665 -48.59375 53.36328125 C-48.21742432 55.22424438 -48.21742432 55.22424438 -47.83349609 57.12280273 C-45.63504229 65.92689111 -40.77483227 72.14249188 -33.3828125 77.3046875 C-25.04582611 82.25673205 -15.38577157 83.94318938 -5.9453125 81.6796875 C1.31760022 78.9820342 6.01176205 75.19807005 11.0546875 69.3671875 C13.0546875 67.6796875 13.0546875 67.6796875 15.6796875 67.3046875 C18.0546875 67.6796875 18.0546875 67.6796875 20.0546875 69.6796875 C19.91879522 77.71431881 15.31807955 84.21662327 10.01171875 89.84765625 C-0.67468637 99.92881365 -14.34284493 104.6796875 -28.9453125 104.6796875 C-45.05489494 103.60459545 -57.86893019 98.65400134 -69.09765625 86.8671875 C-80.64659963 73.19401986 -83.27712989 56.01145819 -81.9453125 38.6796875 C-79.89521423 24.19899341 -73.06657742 10.68005039 -61.375 1.70703125 C-43.32728377 -10.40190656 -18.2706076 -13.45198582 0 0 Z M-41.71484375 10.84765625 C-46.68911691 18.56722446 -49.9453125 27.48127292 -49.9453125 36.6796875 C-37.4053125 36.6796875 -24.8653125 36.6796875 -11.9453125 36.6796875 C-12.13064362 20.9883096 -12.13064362 20.9883096 -18.47265625 6.8671875 C-21.26354083 4.4652526 -23.89010783 2.8598444 -27.5078125 2.2421875 C-33.50859102 3.00592295 -37.91643139 6.19397223 -41.71484375 10.84765625 Z " fill="#FFFFFF" transform="translate(325.9453125,433.3203125)"/>
<path d="M0 0 C12.65672446 9.91774744 20.12192088 22.74144385 22.23828125 38.75390625 C23.36565057 56.45914904 20.61158786 73.59156722 8.84375 87.60546875 C-1.47371428 98.35084629 -12.56032992 103.73942323 -27.51147461 104.22900391 C-42.71931848 104.36670476 -55.4657652 101.14608654 -67.01171875 90.72265625 C-78.79564479 78.40309721 -82.27741667 63.22012494 -82.18359375 46.68823242 C-81.74383133 30.52841002 -76.28100977 16.74501249 -65.109375 4.9765625 C-48.03445035 -11.18921475 -19.55892046 -13.11598195 0 0 Z M-43.453125 9.78515625 C-49.25258084 18.50614247 -52.32656862 30.2921719 -52.76171875 40.75390625 C-52.81328125 41.89988281 -52.86484375 43.04585938 -52.91796875 44.2265625 C-53.40904733 60.72475666 -51.21659257 77.29718789 -39.859375 89.94140625 C-36.98234188 92.42733431 -34.37062094 93.58926096 -30.5859375 93.9765625 C-24.93886114 93.55328987 -21.59047196 91.85383236 -17.546875 87.890625 C-7.04554988 75.32120522 -5.6875882 55.97723993 -7.0703125 40.2421875 C-8.5361446 27.62046504 -10.84481029 15.35673075 -19.76171875 5.75390625 C-23.78101835 2.89943551 -26.57979849 2.14617381 -31.42578125 2.35546875 C-36.62220831 3.24181584 -40.11547955 5.77689844 -43.453125 9.78515625 Z " fill="#FFFFFF" transform="translate(330.76171875,244.24609375)"/>
<path d="M0 0 C0.98226562 0.7115625 0.98226562 0.7115625 1.984375 1.4375 C8.02515928 6.18751841 12.24087521 12.33294159 13.77734375 19.92578125 C14.35197683 25.27894205 14.12401511 30.06298829 10.75 34.4375 C7.3228304 37.63099894 5.40965569 38.89737412 0.70703125 39.09765625 C-4.80373985 38.88923072 -8.63352464 37.8394334 -12.6015625 33.91796875 C-16.45639177 28.63103811 -17.01365627 22.06032244 -17.9375 15.75 C-18.71221549 10.7687715 -19.63113793 7.76519878 -23 4 C-27.39539448 1.26672948 -31.1174237 1.87325162 -36 3 C-43.41267089 6.26157519 -47.37454057 13.97551913 -50.296875 21.2109375 C-55.2039161 35.61203637 -56.31933877 50.82098363 -50 65 C-46.1866127 72.2216022 -39.87624271 76.90953621 -32.19921875 79.640625 C-22.17962685 81.27792954 -10.96957515 81.0748912 -2 76 C2.03229311 73.08189314 5.23557879 70.14663182 8 66 C11.0625 65.75 11.0625 65.75 14 66 C14.33 66.33 14.66 66.66 15 67 C14.86381021 75.57995696 11.91371083 81.48697383 6.31640625 87.94140625 C-4.43481663 98.27645276 -19.38474257 102.84651422 -34 103 C-49.21772057 102.00237628 -62.54751729 97.49830346 -73.23828125 86.234375 C-79.59659907 78.17016704 -84.08845913 69.1106294 -86 59 C-86.27070313 57.57300781 -86.27070313 57.57300781 -86.546875 56.1171875 C-89.08493607 38.65707774 -85.06934321 21.66244965 -74.8125 7.3125 C-57.2658776 -14.2306416 -21.70975004 -16.08129632 0 0 Z " fill="#FFFFFF" transform="translate(559,435)"/>
<path d="M0 0 C1.32 0 2.64 0 4 0 C4 14.52 4 29.04 4 44 C9.94 44 15.88 44 22 44 C23 45 23 45 23.125 48 C23 51 23 51 22 52 C20.65732587 52.08631874 19.31025678 52.10706473 17.96484375 52.09765625 C17.15595703 52.09443359 16.34707031 52.09121094 15.51367188 52.08789062 C14.66353516 52.07951172 13.81339844 52.07113281 12.9375 52.0625 C12.08349609 52.05798828 11.22949219 52.05347656 10.34960938 52.04882812 C8.23304337 52.03700373 6.11651315 52.01906769 4 52 C4.08497406 59.35517655 4.18006875 66.71015229 4.28752708 74.06503677 C4.33713664 77.48146891 4.3834645 80.89787527 4.421875 84.31445312 C4.46634728 88.25667596 4.52584445 92.19860826 4.5859375 96.140625 C4.59748871 97.34736877 4.60903992 98.55411255 4.62094116 99.79742432 C4.7505825 107.36787403 5.53034472 114.57166083 7 122 C10.07909128 122.6870037 12.83061771 123.23289391 16 123 C18.05709048 121.62034494 19.62355741 120.06483898 21.359375 118.3046875 C23 117 23 117 26.4375 117.125 C27.283125 117.41375 28.12875 117.7025 29 118 C30.59320643 122.48994538 29.04262692 125.33900699 27.21875 129.53515625 C23.57384225 136.90674852 18.39623915 140.03192992 11 143 C7.9375 143.8125 7.9375 143.8125 5 144 C4.32453125 144.05027344 3.6490625 144.10054687 2.953125 144.15234375 C-4.43492577 144.47079421 -10.88467002 142.92514668 -16.8125 138.375 C-22.14591603 133.42519394 -24.84514187 126.04159866 -25.12025452 118.86151123 C-25.11803391 117.6268512 -25.11581329 116.39219116 -25.11352539 115.12011719 C-25.11367142 114.43678314 -25.11381744 113.7534491 -25.1139679 113.04940796 C-25.11327315 110.79853096 -25.10550132 108.54773748 -25.09765625 106.296875 C-25.09579051 104.7331751 -25.09436734 103.16947462 -25.09336853 101.60577393 C-25.08955562 97.49583311 -25.0797358 93.38592779 -25.06866455 89.27600098 C-25.05842407 85.07983887 -25.05386526 80.88367101 -25.04882812 76.6875 C-25.03811242 68.45831707 -25.02105073 60.22916295 -25 52 C-25.71027344 52.01160156 -26.42054688 52.02320313 -27.15234375 52.03515625 C-28.07144531 52.04417969 -28.99054688 52.05320312 -29.9375 52.0625 C-30.85402344 52.07410156 -31.77054687 52.08570313 -32.71484375 52.09765625 C-35 52 -35 52 -36 51 C-36.04080783 49.00041636 -36.04254356 46.99954746 -36 45 C-35.3709375 44.731875 -34.741875 44.46375 -34.09375 44.1875 C-15.99592741 35.9017499 -8.17374913 17.04313649 0 0 Z " fill="#FFFFFF" transform="translate(393,204)"/>
<path d="M0 0 C23.34402983 20.18986614 41.33296196 51.40462208 44.9375 82.3125 C41.4806856 80.5840928 41.06330579 76.31032741 39.875 72.8125 C28.12122806 39.76417226 5.2842698 12.27253604 -26.5625 -3 C-52.27607728 -14.86271446 -80.46034917 -15.45664209 -107.09130859 -5.96435547 C-109.70356928 -4.93718747 -112.25212378 -3.81433153 -114.78515625 -2.60546875 C-117.0625 -1.6875 -117.0625 -1.6875 -121.0625 -1.6875 C-122.40320318 -4.28810504 -123.73523354 -6.89254916 -125.0625 -9.5 C-125.4440625 -10.23798828 -125.825625 -10.97597656 -126.21875 -11.73632812 C-126.5796875 -12.44853516 -126.940625 -13.16074219 -127.3125 -13.89453125 C-127.64765625 -14.5491333 -127.9828125 -15.20373535 -128.328125 -15.87817383 C-129.0625 -17.6875 -129.0625 -17.6875 -129.0625 -20.6875 C-83.18912729 -36.94235055 -37.87524198 -31.7055193 0 0 Z " fill="#FEC63F" transform="translate(549.0625,108.6875)"/>
<path d="M0 0 C2.74544488 2.1917738 5.3857223 4.45413529 7.99609375 6.8046875 C9.13111328 7.81595703 9.13111328 7.81595703 10.2890625 8.84765625 C23.49833611 21.30879401 35.62814889 39.04958193 39.99609375 56.8046875 C39.33609375 56.8046875 38.67609375 56.8046875 37.99609375 56.8046875 C37.28646484 55.38929688 37.28646484 55.38929688 36.5625 53.9453125 C32.11483037 45.24146697 27.23499187 37.37900194 20.99609375 29.8046875 C20.22523438 28.86882812 19.454375 27.93296875 18.66015625 26.96875 C3.0273295 8.90752297 -18.35348001 -2.75302592 -42.00390625 -6.1953125 C-70.71508515 -7.85736973 -96.27587067 -4.34626235 -118.60546875 15.06640625 C-123.56124907 19.81500512 -127.46457207 24.93355669 -131.00390625 30.8046875 C-133.61187976 29.54121587 -136.21514032 28.26933526 -138.81640625 26.9921875 C-139.55439453 26.63576172 -140.29238281 26.27933594 -141.05273438 25.91210938 C-141.76494141 25.56083984 -142.47714844 25.20957031 -143.2109375 24.84765625 C-143.86553955 24.52821045 -144.5201416 24.20876465 -145.19458008 23.87963867 C-147.12007689 22.73566856 -148.49226136 21.44724615 -150.00390625 19.8046875 C-134.08922754 -2.01212372 -112.28974339 -15.42198707 -85.65917969 -19.73730469 C-55.33695316 -23.53669668 -24.92730272 -18.21735257 0 0 Z " fill="#FEC63F" transform="translate(552.00390625,138.1953125)"/>
<path d="M0 0 C28.10756479 3.76861204 53.01327232 18.20498403 73.3828125 37.53515625 C75.47592722 39.50643295 77.5913117 41.3661256 79.8125 43.1875 C83.63741045 46.44371873 86.81458349 50.12534132 90 54 C90.83660156 55.010625 91.67320312 56.02125 92.53515625 57.0625 C117.6119948 87.85853907 130.51222896 124.20511342 129 164 C128.67 164 128.34 164 128 164 C127.86537354 162.96782349 127.86537354 162.96782349 127.72802734 161.91479492 C123.32718524 128.97972568 113.30837436 99.25054728 91 74 C90.57605957 73.51047852 90.15211914 73.02095703 89.71533203 72.51660156 C83.388828 65.22621292 76.65316696 58.90953956 69 53 C68.00355469 52.18789062 67.00710938 51.37578125 65.98046875 50.5390625 C47.99929893 36.01128557 26.18035634 25.45765227 3.16015625 22.359375 C1 22 1 22 0 21 C-0.08685603 19.43827255 -0.10702219 17.87270656 -0.09765625 16.30859375 C-0.09443359 15.36435547 -0.09121094 14.42011719 -0.08789062 13.44726562 C-0.07951172 12.45404297 -0.07113281 11.46082031 -0.0625 10.4375 C-0.05798828 9.44041016 -0.05347656 8.44332031 -0.04882812 7.41601562 C-0.03700007 4.94395151 -0.02051849 2.47200482 0 0 Z " fill="#FEC63F" transform="translate(468,29)"/>
</svg>
